<?xml version="1.0" encoding="UTF-8" standalone="no"?>
<svg width="128px" height="128px" viewBox="0 0 128 128" version="1.1" xmlns="http://www.w3.org/2000/svg" xmlns:xlink="http://www.w3.org/1999/xlink">
    <!-- Generator: Sketch 43 (38999) - http://www.bohemiancoding.com/sketch -->
    <title>icon</title>
    <desc>Created with Sketch.</desc>
    <defs>
        <linearGradient x1="100%" y1="0%" x2="0%" y2="100%" id="linearGradient-1">
            <stop stop-color="#372572" offset="0%"></stop>
            <stop stop-color="#F11449" offset="100%"></stop>
        </linearGradient>
        <rect id="path-2" x="0" y="0" width="128" height="128" rx="5"></rect>
    </defs>
    <g id="Page-1" stroke="none" stroke-width="1" fill="none" fill-rule="evenodd">
        <g id="icon">
            <mask id="mask-3" fill="white">
                <use xlink:href="#path-2"></use>
            </mask>
            <use id="Rectangle" fill="url(#linearGradient-1)" xlink:href="#path-2"></use>
            <path d="M31,34.0090115 C31,32.3471803 32.3383504,31 34.0090115,31 L94.9909885,31 C96.6528197,31 98,32.3383504 98,34.0090115 L98,94.9909885 C98,96.6528197 96.6616496,98 94.9909885,98 L34.0090115,98 C32.3471803,98 31,96.6616496 31,94.9909885 L31,34.0090115 Z M52,67 C59.1797017,67 65,61.1797017 65,54 C65,46.8202983 59.1797017,41 52,41 C44.8202983,41 39,46.8202983 39,54 C39,61.1797017 44.8202983,67 52,67 Z M72.5,62 L56,88 L89,88 L72.5,62 Z" id="Combined-Shape" fill="#FFFFFF" mask="url(#mask-3)"></path>
        </g>
    </g>
</svg>